<?xml version="1.0" standalone="no"?>
<!DOCTYPE svg PUBLIC "-//W3C//DTD SVG 20010904//EN"
 "http://www.w3.org/TR/2001/REC-SVG-20010904/DTD/svg10.dtd">
<svg version="1.0" xmlns="http://www.w3.org/2000/svg"
 width="192.000000pt" height="192.000000pt" viewBox="0 0 192.000000 192.000000"
 preserveAspectRatio="xMidYMid meet">
<metadata>
Created by potrace 1.14, written by Peter Selinger 2001-2017
</metadata>
<g transform="translate(0.000000,192.000000) scale(0.100000,-0.100000)"
fill="#000000" stroke="none">
<path d="M1460 1913 c-27 -11 -170 -124 -170 -133 0 -21 -2 -26 -18 -43 -8
-10 -23 -16 -31 -14 -23 5 -109 -65 -273 -224 -51 -50 -58 -61 -58 -96 0 -34
7 -46 55 -93 30 -30 55 -57 55 -60 0 -10 -213 -220 -223 -220 -5 0 -21 -9 -37
-20 l-27 -19 -24 26 c-49 52 -99 76 -168 79 -71 3 -114 -10 -169 -53 -35 -26
-77 -104 -85 -158 -19 -121 -30 -154 -66 -192 -53 -55 -88 -121 -109 -203 -8
-33 -8 -456 0 -472 8 -17 38 -18 408 -18 219 0 406 3 415 6 14 6 16 32 14 233
-2 279 -17 344 -106 442 l-36 40 20 27 c47 64 103 150 103 158 0 5 48 57 107
116 l108 107 61 -60 c91 -87 104 -85 220 34 96 99 273 305 342 398 30 39 43
68 46 96 5 68 -10 90 -172 246 -64 61 -75 68 -119 72 -26 3 -55 2 -63 -2z"/>
</g>
</svg>
